<?xml version="1.0" encoding="UTF-8"?> <svg xmlns="http://www.w3.org/2000/svg" width="500" height="500" viewBox="0 0 500 500" fill="none"><rect width="500" height="500" fill="white"></rect><g clip-path="url(#clip0)"><path d="M129.204 226.02H164.051V244.878H129.204V257.82H167.202V278.343H107.147V192.37H167.017V212.708H129.204V226.02Z" fill="black"></path><path d="M327.905 221.028C327.905 201.799 345.143 192.37 362.567 192.37C379.99 192.37 397.228 201.984 397.228 221.028V249.5C397.228 268.544 379.99 278.158 362.567 278.158C345.143 278.158 327.905 268.544 327.905 249.5V221.028ZM349.036 249.5C349.036 255.602 355.894 258.56 362.567 258.56C369.24 258.56 376.098 255.417 376.098 249.5V221.028C376.098 214.557 369.054 211.598 362.196 211.598C355.523 211.598 349.036 214.926 349.036 221.028V249.5Z" fill="#F71123"></path><path d="M210.946 192.37H178.694V227.869L200.566 248.761V212.523H211.688C218.916 212.523 222.438 216.036 222.438 221.582V248.391C222.438 253.938 219.102 257.82 211.688 257.82H200.566H178.694V278.158H210.946C228.184 278.343 244.31 269.653 244.31 249.87V221.028C244.31 201.06 228.184 192.37 210.946 192.37Z" fill="black"></path><path d="M286.015 193.479H254.689V228.052L276.005 248.39V213.261H286.756C293.799 213.261 297.321 216.589 297.321 222.136V248.205C297.321 253.567 293.985 257.265 286.756 257.265H276.005H254.689V277.048H286.015C302.882 277.233 318.452 268.728 318.452 249.499V221.397C318.452 201.983 302.882 193.479 286.015 193.479Z" fill="#F71123"></path><path d="M438.933 276.864H470.258V242.475L448.943 222.137V257.266H438.192C431.148 257.266 427.627 253.938 427.627 248.391V222.322C427.627 216.96 430.963 213.262 438.192 213.262H448.943H470.258V193.48H438.933C422.066 193.295 406.496 201.799 406.496 221.028V249.131C406.496 268.544 422.251 276.864 438.933 276.864Z" fill="#F71123"></path><path d="M267.85 303.672C266.367 306.445 263.772 307.554 261.548 307.554C258.026 307.554 254.689 305.52 254.689 301.638V295.537C254.689 291.654 258.211 289.62 261.733 289.62C263.957 289.62 266.552 290.545 267.85 293.688L264.328 295.167C263.216 292.948 259.138 293.503 259.138 295.721V301.823C259.138 303.856 263.03 304.596 264.143 302.008L267.85 303.672Z" fill="black"></path><path d="M310.852 307.369H306.033L304.921 303.856H300.287L299.175 307.369H294.355L300.472 289.805H304.55L310.852 307.369ZM303.809 299.973L302.511 294.797H302.326L301.028 299.973H303.809Z" fill="black"></path><path d="M340.323 301.822C341.992 303.856 345.884 304.041 346.07 302.192C346.07 301.268 344.587 300.713 343.104 300.528C340.323 300.158 337.729 298.31 337.729 294.982C337.729 291.469 340.88 289.805 344.031 289.805C346.069 289.805 348.294 290.359 349.962 292.578L346.996 294.797C345.143 292.763 341.992 292.948 341.992 294.982C341.992 295.906 342.918 296.276 344.401 296.646C347.552 297.2 350.703 298.31 350.518 302.562C350.333 305.89 346.811 307.739 343.66 307.739C341.621 307.739 339.397 306.629 337.729 304.596L340.323 301.822Z" fill="black"></path><path d="M383.327 307.369H378.878V289.805H383.327V307.369Z" fill="black"></path><path d="M412.798 289.805H417.061L421.324 297.2L422.807 300.713H422.992L422.436 297.755V289.805H426.885V307.369H422.436L418.544 300.528L417.061 297.015H416.876L417.432 300.343V307.369H412.983V289.805H412.798Z" fill="black"></path><path d="M455.801 295.721C455.801 291.654 459.323 289.805 463.03 289.805C466.737 289.805 470.259 291.838 470.259 295.721V301.637C470.259 305.705 466.737 307.554 463.03 307.554C459.323 307.554 455.801 305.52 455.801 301.637V295.721ZM460.249 301.637C460.249 302.932 461.732 303.486 463.03 303.486C464.512 303.486 465.81 302.932 465.81 301.637V295.721C465.81 294.427 464.327 293.687 462.844 293.687C461.547 293.687 460.064 294.427 460.064 295.721V301.637H460.249Z" fill="black"></path><path d="M70.0754 223.802C70.2608 222.692 63.7734 220.104 63.2173 221.953L65.8123 225.835C65.8123 225.835 69.5194 226.575 70.0754 223.802Z" fill="black"></path><path d="M42.8282 264.846C40.7893 264.846 37.6383 268.914 37.6383 268.914C35.414 224.725 59.1395 201.984 59.1395 201.984C59.1395 201.984 58.0274 209.01 58.2128 211.598C58.3981 214.187 61.7345 215.296 65.2563 215.851C68.778 216.405 69.7048 218.994 70.6316 221.213C71.5584 223.431 77.4897 223.801 81.7529 224.356C86.0161 224.91 84.904 228.053 84.904 228.053C84.904 228.053 84.904 228.053 81.7529 233.415C78.6019 238.777 68.0366 238.222 68.0366 238.222C66.3684 244.508 65.8123 250.61 73.2266 258.93C78.9726 265.401 80.0847 274.46 80.2701 277.973H101.771L78.2312 248.761C88.6111 245.433 95.0985 236.558 95.0985 220.658C94.5425 200.505 80.8261 192.37 63.032 192.37H28.7412V278.158H41.5308C42.6429 273.536 44.3111 264.846 42.8282 264.846Z" fill="black"></path></g><defs><clipPath id="clip0"><rect width="443" height="115" fill="white" transform="translate(28 192)"></rect></clipPath></defs></svg> 